<svg xmlns="http://www.w3.org/2000/svg" viewBox="0 0 309.53718 827.50574"><g id="Layer_2" data-name="Layer 2"><g id="Layer_1-2" data-name="Layer 1"><path d="M91.61656,318.092a186.9901,186.9901,0,0,0,69.38545,14.4038c28.73529.57876,53.40869-9.74637,74.59151-28.85875,7.00447-6.31984,13.72467-12.91741,19.13426-20.71741.4072-2.58624,2.66-4.15545,3.5642-6.46915.98855-1.18313,1.2353-3.05982,3.155-3.36928,5.89547-8.02312,10.03537-16.993,13.66166-26.17292a200.363,200.363,0,0,0,9.7263-33.72584c2.84635-13.96976-2.41775-23.87826-15.57154-29.183-3.08745-1.24511-6.23238-2.34772-9.32017-3.592-19.15663-7.71913-35.56721-19.15551-47.75682-36.03878-12.786-17.70926-13.78553-36.93808-6.58174-57.0033,1.19845-3.338,2.84174-6.51639,4.27948-9.76854.60216-.1124,1.00361-.03861.66745.71944-4.18569,9.54988-7.03537,19.40987-7.07994,29.94478-.07674,18.14818,7.98082,32.46523,20.8773,44.52616a113.24045,113.24045,0,0,0,42.67886,25.17812c6.59336,2.157,12.712,5.0447,17.38528,10.57074a25.409,25.409,0,0,1,6.05147,20.894c-7.18428,46.83865-28.5299,85.01992-69.11,111.11463a88.40682,88.40682,0,0,1-28.72237,12.19c-5.43969,1.20617-9.82824,4.31752-14.53353,6.8881-55.28769,30.20413-120.47841,10.61476-152.38675-34.5044-15.25012-21.564-20.68943-45.88022-18.08009-72.01806,1.51949-15.22071,5.1866-29.91393,13.11538-43.1641C30.7501,173.21988,43.5674,158.81929,58.102,145.90191,71.61071,133.89632,85.2776,122.04524,97.31,108.5001c8.588-9.66765,16.18654-19.99855,20.95624-32.18841a54.989,54.989,0,0,0,3.69437-22.28876c2.62724-.71605,3.97406.1516,3.78795,3.00773-.1484,2.27776.244,4.57439-.22109,6.84328-1.19646,12.363-6.40915,23.14925-13.26446,33.2288C99.45788,115.93035,82.68312,131.02828,65.81507,146c-15.65267,13.893-29.88022,28.98339-40.61769,47.0886-6.24691,10.5333-9.48432,22.12754-11.47141,34.08524a103.49462,103.49462,0,0,0,3.677,50.40975c8.71873,26.14515,25.93787,45.20443,49.63354,58.60621a114.56783,114.56783,0,0,0,71.46447,14.399A118.28063,118.28063,0,0,0,184.10438,335.131c-32.94256,3.51848-63.81044-2.39635-93.29149-16.24756C90.67158,318.20414,90.84856,317.848,91.61656,318.092Z" style="fill:#221f20"/><path d="M240.18049,755.20461c4.4205-11.04739,7.57692-22.40982,8.18486-34.35126,1.29017-25.342-8.33934-45.72905-28.38622-61.09991-20.726-15.89146-43.82122-27.30238-68.63661-35.2884-19.80223-6.37266-40.25883-9.36009-60.84493-11.71815-13.2377-1.51628-26.48895-2.91775-39.33888-6.84151-19.78374-6.041-33.20167-19.12208-41.77-37.47869C.26359,548.87743-1.21294,528.18888.77736,507.00292a172.35489,172.35489,0,0,1,18.969-64.37773C36.20976,411.17383,61.0506,388.4,93.15079,373.43122c1.03539-.48282,2.08286-.93972,3.12467-1.40873.72959-.30487.8157.05238.66851.64966-24.62013,12.79391-45.444,29.98051-61.11355,53.06135-14.3703,21.16713-22.74186,44.64194-26.66707,69.82384C6.55054,512.31946,6.16112,529.053,9.91,545.6766c3.9746,17.62455,11.59474,33.22793,26.57325,44.2221,9.29758,6.8245,20.17236,9.91592,31.37852,11.63311,14.88349,2.28069,29.84583,4.04148,44.74679,6.21425a229.37015,229.37015,0,0,1,81.70108,27.812c13.899,7.95993,27.503,16.40348,38.40124,28.36838,15.78837,17.33374,21.53248,37.76772,18.1805,60.905a107.869,107.869,0,0,1-10.094,31.71748C239.541,756.583,239.80061,755.92138,240.18049,755.20461Z" style="fill:#221f20"/><path d="M97.75921,558.80977c-12.63327-13.27786-23.06379-28.05883-29.74313-45.19888-12.09075-31.02646-7.79379-60.16213,10.79293-87.4543,10.20762-14.98859,23.18742-27.35029,37.24141-38.61036,18.588-14.89274,37.47061-29.38487,59.20594-39.58811,11.12943-5.22452,22.69552-9.40529,33.9994-14.21335,17.99647-7.65477,32.90178-19.61577,46.42908-33.44455,19.64141-20.07925,34.91369-42.91406,43.39946-69.91919a145.2732,145.2732,0,0,0,5.75727-62.01228c-3.38342-27.49069-13.3943-52.54432-27.38966-76.19249-.35354-.79175.0883-.87158.70861-.79159,20.79014,31.76763,32.87165,66.15628,31.22793,104.5989-1.2407,29.01655-10.70092,55.35689-26.73829,79.37031-14.26862,21.36511-31.83709,39.56753-53.31342,53.831-9.729,6.46146-20.40566,11.10331-31.31437,15.03227-23.94242,8.62318-45.33856,21.58757-65.5146,36.87144-16.35634,12.39032-32.36547,25.11391-45.36236,41.18158C76.57356,435.34,68.73647,449.73033,65.785,466.48316c-3.54871,20.14284.45957,39.08064,9.18146,57.2455a148.36428,148.36428,0,0,0,24.03068,35.17072A1.13612,1.13612,0,0,1,97.75921,558.80977Z" style="fill:#211f20"/><path d="M230.64316,517.94737a139.02263,139.02263,0,0,1,57.051,59.62812c13.90242,27.56538,18.544,57.03961,17.06905,87.63842a284.851,284.851,0,0,1-15.36514,78.20019c-8.565,25.19157-21.8317,47.49562-43.8045,63.36534-22.93066,16.5615-48.63085,23.5945-76.88407,19.65863-8.61261-1.1998-17.07955-3.33982-24.85418-7.52971.49672-1.9749,1.772-2.61081,3.68825-2.14433,43.40664,17.8632,93.27929-.53308,119.1294-37.07121,12.73761-18.00408,20.46395-38.111,25.67216-59.359,5.62254-22.93852,9.86627-46.06064,9.35317-69.79874-.69459-32.13268-8.03134-62.34221-26.43851-89.24307a146.56874,146.56874,0,0,0-45.42821-42.58081C229.71215,518.04233,229.85228,517.64921,230.64316,517.94737Z" style="fill:#222020"/><path d="M104.75938,581.55776c11.32435,4.66628,23.05154,4.70976,34.96341,3.218,15.29562-1.91552,30.57545-4.71453,46.07376-3.07645,27.2288,2.87794,52.95051,10.0851,73.73014,29.06629,18.276,16.69429,24.86259,38.15258,23.195,62.40751a112.54633,112.54633,0,0,1-7.52222,32.81151c-.41247,1.07107-.34021,2.54969-2.28859,3.10034a120.80172,120.80172,0,0,0,5.58244-25.72761c3.959-35.87272-9.29239-65.535-44.06253-81.73519a142.65047,142.65047,0,0,0-79.01657-12.67986c-10.83831,1.32587-21.69667,2.9047-32.70284,1.881a54.45374,54.45374,0,0,1-20.73666-5.86452C101.52884,582.70015,102.40836,581.52661,104.75938,581.55776Z" style="fill:#221f20"/><path d="M261.447,273.08116l-2.56016,3.21716c-1.196,2.30955-2.48575,4.54369-4.79161,5.96112l-4.74615,5.36284-.73959-.70278c2.50023-2.97637,5.23244-5.78938,7.46228-8.95612,12.80771-18.18883,12.4529-36.93739,1.44478-55.63706-14.01317-23.80473-35.8398-35.03618-62.68247-37.739-5.95139-.59925-11.9756-.251-17.883-1.458-13.12542-2.68159-22.17853-10.68351-28.45827-22.07553-24.22417-43.945-12.94325-104.60006,34.04257-135.53918,26.039-17.1461,54.47608-25.7104,85.78159-23.99052,2.85268.15672,5.69041.58508,9.31856.97053-6.77722,0-12.77137-.19043-18.75.03326-24.68767.92369-47.44839,8.40356-68.32232,21.32023-19.00033,11.7573-34.2063,27.31232-42.6025,48.36832-10.94008,27.43542-10.92024,54.87267,1.58,82.00723,4.40358,9.55893,10.3288,17.61967,19.95072,22.47085,6.34538,3.19922,13.2204,3.64416,20.14037,3.84908,17.81936.52772,34.14282,5.679,48.67192,16.07525,13.03674,9.32839,21.88083,21.78155,26.9625,36.97029.4329,1.29409.19627,3.10031,1.98671,3.728l-.09565-.07831c-.62444,4.57543.80451,9.06484.46118,13.66286a52.3742,52.3742,0,0,1-5.493,19.95119A4.11494,4.11494,0,0,0,261.447,273.08116Z" style="fill:#221f20"/><path d="M164.8361,289.89c9.11962-1.49011,17.94847-3.86111,26.18728-8.21006,6.12618-3.23375,12.251-6.46765,16.60727-12.05816,4.37825-5.6186,7.154-11.86658,5.61229-19.18314-1.18676-5.63176-6.7928-8.37439-12.13583-6.45773-5.35936,1.92255-9.57093,5.39118-13.50518,9.32666-4.79119,4.79264-9.27272,9.97485-15.57382,12.937-3.12084,1.467-6.30148,2.80493-9.82875,2.95115a9.69041,9.69041,0,0,1-4.70558.08693c-2.15315-.5-4.182-1.4037-3.7154-4.3014,10.76841-.04668,19.15731-4.89959,25.99206-12.87969,6.22631-7.26956,13.23885-13.38948,22.84093-15.77652,9.00279-2.2381,17.99153-2.95175,26.67193,1.099,8.10787,3.78358,11.62927,10.6831,11.31127,19.29767-.61377,16.62651-8.3166,29.30533-22.379,38.14433-.35713.22444-.749.594-1.42562.07487a55.40814,55.40814,0,0,0,13.63274-16.52712,43.97192,43.97192,0,0,0,4.90156-21.602c-.228-8.75905-5.60249-14.19333-15.11374-15.31354a36.26806,36.26806,0,0,0-11.57431.49727c8.6105,5.58418,10.24383,13.3543,5.531,24.112a31.12969,31.12969,0,0,1-9.62078,12.38307c-11.50446,8.86331-24.24992,14.822-38.86027,16.31136a2.08341,2.08341,0,0,1-1.00095.18816c-1.36429-.247-3.46928.88664-3.95874-.74836-.55247-1.84518,1.32323-2.91036,2.90059-3.70329C164.03547,290.33314,164.43143,290.10308,164.8361,289.89Z" style="fill:#221f20"/><path d="M219.36975,353.33084c-21.51466,8.44135-40.71123,20.36835-55.035,38.80131C143.93068,418.38968,137.23628,447.9701,144.79,480.502c1.775,7.6443,5.21894,14.698,9.00668,21.55633.09159,3.19838-.73529,4.18579-4.04758,4.83339a81.5971,81.5971,0,0,1-14.57169-44.92221c-.9086-45.399,19.40268-78.57817,59.305-99.83339,7.86508-4.18963,16.08582-7.76675,24.97055-9.41239q.24288.23944.125.42951Q219.46807,353.33068,219.36975,353.33084Z" style="fill:#231f20"/><path d="M237.33655,289.02712c4.97311-5.539,10.152-10.90629,13.85379-17.46342,8.60793-15.24749,10.61574-30.64786,1.24117-46.36983-6.63388-11.12558-17.04165-15.2504-29.33952-15.55009-21.88062-.53324-43.22792,3.07047-64.30125,8.65235-4.43827,1.17561-8.87874,2.39012-13.37965,3.27361-13.25978,2.60271-23.67515-1.9302-29.47569-14.09093-9.19269-19.27211-9.53222-38.996-.81932-58.68227.60338-.09642,1.02218-.02646.66758.7406a71.92577,71.92577,0,0,0-.03436,49.97841c3.11653,8.7375,8.20711,15.97006,17.79568,18.66746,5.21632,1.46742,10.33062.14287,15.28769-1.25193,13.0535-3.67286,26.133-7.28794,39.6007-8.97891,14.24562-1.78862,28.50787-3.8426,42.93735-1.21867,13.503,2.45547,22.22919,10.45207,26.99023,22.89813,6.80609,17.79194,1.95244,33.6005-9.12549,48.0463-3.34028,4.35574-6.9334,8.56979-11.62442,11.62823Z" style="fill:#212020"/><path d="M112.90439,321.67278c-26.87892-10.21969-45.79577-28.506-55.79707-55.58907a91.70163,91.70163,0,0,1-1.693-60.58352,93.63139,93.63139,0,0,1,15.62806-29.87146c.77973,1.04185-.08573,1.5585-.407,2.0946C59.61705,196.11241,54.137,216.012,56.4191,237.36509c3.16363,29.602,16.5226,53.47914,42.10452,69.7672,1.64317,1.04623,3.252,2.1464,4.87678,3.22145,3.08829,2.73277,6.45854,5.16432,9.05674,8.42076.677.8485,1.77765,1.58013,1.04578,2.93753-.03187.05914-.183.08269-.27377.07391A1.37993,1.37993,0,0,1,112.90439,321.67278Z" style="fill:#221f20"/><path d="M114.96936,799.82409A71.37057,71.37057,0,0,1,94.67248,760.386c-3.41808-20.44546-.298-39.82375,11.79773-56.91825,17.36649-24.54351,41.78883-33.7289,71.201-30.89908a59.55253,59.55253,0,0,1,14.04018,3.30183c-.02874,1.26919-.78737.80389-1.43448.60357a85.58586,85.58586,0,0,0-24.5339-2.91816c-35.36926,1.45921-63.52569,26.21874-68.45241,61.17829-2.99809,21.27451,1.965,40.80306,15.782,57.69573.72334.88425,1.38966,1.815,2.08248,2.72417C115.5074,796.72722,117.51112,798.36607,114.96936,799.82409Z" style="fill:#212121"/><path d="M133.71986,321.02886c7.19994.84871,14.386,1.47487,21.66733.83538,23.33186-2.04919,41.53355-13.00755,55.41081-31.57432,1.9199-2.56864,3.64554-5.28248,5.69371-7.82027a35.94782,35.94782,0,0,1-4.45621,9.05181C194.37,319.571,163.5062,332.90285,130.95291,326.58328c-.45156-.08767-.90881-.146-1.36341-.218C128.75152,322.87241,131.52379,322.17362,133.71986,321.02886Z" style="fill:#222020"/><path d="M90.832,77.52659c-.05939-5.02775.88572-9.97759.04162-15.097-5.2335-31.74207-33.58675-44.64357-58.71593-28.744-.54969.34781-1.13611.63767-2.13347,1.19284,7.80945-9.93781,25.75121-14.07325,39.48872-9.14033,15.66571,5.62528,25.342,22.60525,26.75044,37.22842-3.52491,3.81057-3.52356,3.80958-.38314,8.05094.54121.73093,1.11669,1.463.53944,2.44464a19.01232,19.01232,0,0,1-1.5582,7.50068C92.36029,81.17523,91.48613,79.47989,90.832,77.52659Z" style="fill:#222121"/><path d="M161.488,513.09655a103.47607,103.47607,0,0,0,32.03518,25.15675c13.07232,6.65026,27.02969,10.06762,41.429,12.00318-27.21323.12443-51.19954-8.35765-71.425-26.86553-.21193-2.45206-2.16791-3.57395-3.776-4.96706-.988-.856-1.81635-1.8855-1.27113-3.2462C158.98773,513.9104,159.72425,512.68283,161.488,513.09655Z" style="fill:#222021"/><path d="M267.253,237.31716c.37912-5.14091,1.60784-10.17761,1.41519-15.40363-.49165-13.33732-6.07435-23.07306-18.44106-29.06416a143.70824,143.70824,0,0,0-38.48414-12.3491c-13.23225-2.28558-23.98112-8.87145-32.42278-19.27635-.25174-.65809.07876-.76171.6268-.65819,10.29065,11.19748,23.3084,16.66293,38.17023,18.6453,12.42361,1.65719,23.82765,6.47141,34.9242,12.15062,14.45418,7.3977,18.89815,21.39442,16.56625,36.81923-.46312,3.06287-.38208,6.38372-2.45161,9.05727Z" style="fill:#232323"/><path d="M90.832,77.52659q2.01473,1.71816,4.02948,3.43629c-2.80583,12.12267-8.2185,23.094-15.16439,33.29705a102.88365,102.88365,0,0,1-25.0473,25.35857c-.49173.35627-.94177,1.08178-2.634.37821,3.94257-3.73173,7.83385-7.0201,11.26556-10.7332,13.036-14.10512,21.45557-30.76551,26.66635-49.14407C90.19638,79.2421,90.53511,78.39029,90.832,77.52659Z" style="fill:#232121"/><path d="M115.87825,33.88926C108.04656,19.14435,96.83609,8.31747,80.39533,3.78651,66.4185-.0654,53.30848,2.527,40.94886,9.71778,38.96869,10.86983,37.066,12.155,35.11924,13.3653c-.032.01988-.16922-.12956-.25735-.2,24.3-22.14513,66.04115-16.94211,84.42565,20.0929A3.39357,3.39357,0,0,1,115.87825,33.88926Z" style="fill:#232323"/><path d="M105.36576,272.52262C90.41406,257.59787,82.88294,236.04323,85.7576,215.867c.54852,20.65512,7.4091,38.62873,22.38979,53.15271C108.84769,271.47969,107.76768,272.526,105.36576,272.52262Z" style="fill:#222121"/><path d="M119.17717,278.06613a86.415,86.415,0,0,0,22.90352,10.321,6.86109,6.86109,0,0,1-2.12064,4.77446,67.68527,67.68527,0,0,1-24.263-11.62087A4.213,4.213,0,0,1,119.17717,278.06613Z" style="fill:#222021"/><path d="M97.60552,582.45151c-15.39764-9.223-25.88987-27.52562-29.24974-40.69505,2.09131,3.89777,4.06189,7.86631,6.29911,11.67844a82.81271,82.81271,0,0,0,17.52339,20.657c1.32567,3.12384,4.03585,4.15557,7.07889,4.68427l1.34952.66642C101.05183,581.88727,99.728,582.56762,97.60552,582.45151Z" style="fill:#262626"/><path d="M150.80532,269.21087c-9.19121-1.16815-17.40254-4.91337-25.23065-9.639a49.16133,49.16133,0,0,1-6.79883-4.81842,119.66216,119.66216,0,0,0,30.18624,10.07234c1.02231.97526,2.706,1.13759,3.28338,2.65673C152.78384,268.89906,152.56482,269.701,150.80532,269.21087Z" style="fill:#2c2b2b"/><path d="M115.87825,33.88926c1.07875-.52206,2.12047-1.244,3.40929-.63105C124.456,42.834,127.278,52.888,125.52748,63.87393a26.70294,26.70294,0,0,1-.12945-3.67326c.28043-2.8971.0387-5.41106-3.43741-6.17775A59.911,59.911,0,0,0,115.87825,33.88926Z" style="fill:#222021"/><path d="M164.8361,289.89c-.64285,1.87759-2.79308,2.59344-3.75938,4.59379,1.73945.12006,3.17444.2191,4.60943.31812A59.63912,59.63912,0,0,1,143.99,294.028c2.10051-3.36561,5.38634-4.127,9.02715-4.10855Z" style="fill:#222021"/><path d="M112.28138,314.53751a159.11045,159.11045,0,0,0,17.33843,5.615c.20036,3.48451-2.14365,4.48943-4.93246,5.06084a7.02529,7.02529,0,0,1-3.42323-.878,22.56436,22.56436,0,0,1-7.81485-6.52225C112.69807,316.8839,111.5328,316.03122,112.28138,314.53751Z" style="fill:#242122"/><path d="M161.488,513.09655c-3.179,2.82-3.132,2.76883-.06919,5.58384,1.32382,1.21668,3.5301,2.19941,2.10832,4.71056a83.35661,83.35661,0,0,1-13.778-16.4992c1.608-1.39438,3.54107-2.51664,4.04758-4.83339q1.34213,2.11544,2.68422,4.231a2.062,2.062,0,0,0-.32514.59463c-.26718,1.1386-1.96852,2.23469-.80231,3.32593,1.20929,1.13155,1.98945-1.04553,3.202-1.08242Q160.02181,511.112,161.488,513.09655Z" style="fill:#222021"/><path d="M112.28138,314.53751c2.37563,3.83306,6.10069,6.42905,8.98274,9.79787a29.20574,29.20574,0,0,1-8.35973-2.6626c-.73676-2.89309-3.45872-4.12691-5.21581-6.16215-1.46256-1.69412-3.36261-3.01372-4.28818-5.15689Z" style="fill:#222021"/><path d="M114.96936,799.82409c1.05063-1.51737-.02676-3.11932.18576-4.67,4.385,4.66836,9.46334,8.54109,14.41336,12.56113-1.02126,1.655-1.02126,1.655-4.32967.96319A51.31078,51.31078,0,0,1,114.96936,799.82409Z" style="fill:#222021"/><path d="M119.17717,278.06613a10.76475,10.76475,0,0,1-3.48008,3.47463q-3.80068-3.10951-7.60132-6.219c-.24747-2.1166.95588-3.09844,2.79975-3.57929Q115.03633,274.90427,119.17717,278.06613Z" style="fill:#232323"/><path d="M147.54359,816.764c-1.6511-.01046-2.35971,1.6-3.68825,2.14433-3.76833-.85665-6.95965-2.92922-10.22248-4.851a3.17185,3.17185,0,0,1,2.13609-2.80893Q141.65627,814.00614,147.54359,816.764Z" style="fill:#222021"/><path d="M153.01718,289.91948c-3.63668-.00937-5.71988,3.39421-9.02715,4.10855q-2.015-.43317-4.03-.8664c.44493-1.70783-.22468-3.91066,2.12064-4.77446Q147.54893,289.15334,153.01718,289.91948Z" style="fill:#262424"/><path d="M96.41965,73.46219c-.16238-1.31475-1.247-1.84819-2.18413-2.42915-1.96657-1.21918-2.28631-3.04589-1.89161-5.05627a3.49665,3.49665,0,0,1,3.91944-3.01016A23.46524,23.46524,0,0,1,96.41965,73.46219Z" style="fill:#222021"/><path d="M135.769,811.2484c-.11506,1.39024-1.13589,2.09174-2.13609,2.80893a44.5914,44.5914,0,0,1-8.394-5.379c1.1746-1.52852,3.20728.79992,4.32967-.96319A29.56822,29.56822,0,0,1,135.769,811.2484Z" style="fill:#272727"/><path d="M230.64316,517.94737q-.40572.382-.81152.76387c-7.68-4.00965-15.28346-8.17569-23.25314-11.62365A99.36335,99.36335,0,0,1,230.64316,517.94737Z" style="fill:#221f20"/><path d="M190.277,676.474q.71722-.30174,1.43448-.60357a69.71318,69.71318,0,0,1,23.89232,13.51368c.09957.37269-.014.4924-.37617.31673A104.99668,104.99668,0,0,0,190.277,676.474Z" style="fill:#222020"/><path d="M150.80532,269.21087c.53315-.27446,1.44673-.337.68244-1.30526-.82291-1.04249-2.09645-1.71543-2.52568-3.07978q2.40815.07772,4.8163.15539c1.716,3.58467,4.77747,4.481,8.421,4.21447A24.7993,24.7993,0,0,1,150.80532,269.21087Z" style="fill:#222021"/><path d="M124.68735,325.21338c1.69149-1.64083,3.93045-2.74806,4.93246-5.06084a9.36909,9.36909,0,0,1,4.10005.87632c-1.01683,2.05742-3.59379,2.90736-4.13036,5.33646A12.48827,12.48827,0,0,1,124.68735,325.21338Z" style="fill:#222021"/><path d="M158.55547,509.12745a3.521,3.521,0,0,1-2.99062,3.21278c-1.30326.15709-2.15753-1.34339-2.151-2.2187a3.78408,3.78408,0,0,1,3.067-3.83222Q157.51822,507.70839,158.55547,509.12745Z" style="fill:#232323"/><path d="M100.60844,579.45455c1.38452.69226,2.769,1.38452,4.15356,2.10563a7.35,7.35,0,0,0-2.79788,3.40361c-1.44221-.83648-2.91326-1.673-4.35547-2.50944A5.05514,5.05514,0,0,0,100.60844,579.45455Z" style="fill:#221f20"/><path d="M110.89552,271.74245l-2.79975,3.57931q-1.365-1.39957-2.73-2.79914c1.3691-.81674,2.64669-1.70617,2.78163-3.50287Q109.52144,270.38111,110.89552,271.74245Z" style="fill:#222021"/><path d="M278.16052,91.38467l-.70861.79159q-3.9085-5.80943-7.81692-11.61887l.71461-.47616A100.47863,100.47863,0,0,1,278.16052,91.38467Z" style="fill:#221f20"/><path d="M92.18594,574.08954c2.36523,1.55758,4.7016,3.11517,7.06683,4.67275C94.23388,579.4834,92.61861,578.41616,92.18594,574.08954Z" style="fill:#221f20"/><path d="M91.61656,318.092q-.40179.39576-.80367.79148a26.52569,26.52569,0,0,1-9.87644-5.87951Q86.27656,315.548,91.61656,318.092Z" style="fill:#5f5f5f"/><path d="M97.75921,558.80977l1.23791.08961q3.953,4.122,7.906,8.24411A34.21392,34.21392,0,0,1,97.75921,558.80977Z" style="fill:#222021"/><path d="M115.78366,149.53714l-.66758-.7406a29.05832,29.05832,0,0,1,6.28565-10.13679Q118.59267,144.09844,115.78366,149.53714Z" style="fill:#545454"/><path d="M240.18049,755.20461l.61693,1.34431a22.80388,22.80388,0,0,1-4.87341,7.8938Q238.05226,759.82374,240.18049,755.20461Z" style="fill:#666"/><path d="M210.55158,78.31625l-.66745-.71943a19.34894,19.34894,0,0,1,4.89139-7.35991Z" style="fill:#221f20"/><path d="M179.947,160.56573l-.6268.65819a10.54489,10.54489,0,0,1-3.74942-6.17885Q177.75888,157.8054,179.947,160.56573Z" style="fill:#221f20"/><path d="M24.715,22.538a13.93241,13.93241,0,0,1,5.7796-5.87357C29.20824,19.21665,26.68386,20.646,24.715,22.538Z" style="fill:#222021"/><path d="M96.944,372.67215q-.33429-.32479-.66851-.64966a11.94388,11.94388,0,0,1,6.74873-2.14534Q99.98411,371.27463,96.944,372.67215Z" style="fill:#221f20"/><path d="M202.31126,505.33411c-2.00465.191-3.67559-.738-5.96608-1.55228C198.98288,503.2769,200.49178,504.96749,202.31126,505.33411Z" style="fill:#221f20"/><path d="M237.611,289.30616a9.39672,9.39672,0,0,1-4.04843,3.08366c1.15493-1.24952,2.06222-2.76242,3.77394-3.3627Q237.472,289.16846,237.611,289.30616Z" style="fill:#212020"/><path d="M215.60375,689.38413a8.78307,8.78307,0,0,1,3.62042,3.39646,8.38312,8.38312,0,0,1-3.99655-3.07973A.36745.36745,0,0,1,215.60375,689.38413Z" style="fill:#222020"/><path d="M247.80023,287.89771a8.98383,8.98383,0,0,1-4.7016,3.63436C244.80044,289.513,246.04074,288.38806,247.80023,287.89771Z" style="fill:#221f20"/><path d="M224.63836,351.21065c-2.27869,1.26915-3.60552,2.07678-5.27848,2.13447a.81248.81248,0,0,1,.08653-.63457C220.629,351.47025,222.15776,351.55678,224.63836,351.21065Z" style="fill:#221f20"/></g></g></svg>